<?xml version="1.0" encoding="UTF-8"?>
<svg id="Layer_2" data-name="Layer 2" xmlns="http://www.w3.org/2000/svg" viewBox="0 0 275.97 44.13">
  <defs>
    <style>
      .cls-1 {
        fill: #1c75bc;
      }

      .cls-1, .cls-2 {
        stroke-width: 0px;
      }

      .cls-2 {
        fill: #414042;
      }
    </style>
  </defs>
  <g id="Layer_1-2" data-name="Layer 1">
    <g>
      <path class="cls-1" d="m20.8,40.17l-3.9,3.96L0,27.23,16.9,10.33l3.9,3.99-12.91,12.91,12.91,12.94Z"/>
      <path class="cls-2" d="m56.15,43.08h-20.66v-6.14h6.8v-18.49h-6.8v-6.14h13.63v24.63h7.03v6.14Zm-6.27-34.76h-8.32V0h8.32v8.32Z"/>
      <path class="cls-2" d="m96.39,43.08h-6.83v-18.98c0-2.4-.45-4.06-1.35-4.98s-2.21-1.39-3.93-1.39c-2.53,0-4.59,1.02-6.19,3.07s-2.39,4.87-2.39,8.48v13.8h-6.83V0h6.83v20.04c.68-2.66,1.95-4.74,3.8-6.22s4.13-2.23,6.83-2.23c3.15,0,5.61,1.02,7.39,3.07s2.67,5.19,2.67,9.44v18.98Z"/>
      <path class="cls-2" d="m133.3,43.08h-6.83v-2.82c-1.32,1.16-2.65,2.05-3.99,2.66-1.34.61-2.87.92-4.59.92-1.98,0-3.82-.4-5.51-1.19s-3.15-1.9-4.37-3.32-2.18-3.12-2.87-5.1-1.04-4.15-1.04-6.5.35-4.49,1.04-6.49,1.65-3.7,2.87-5.12,2.68-2.53,4.37-3.33,3.53-1.2,5.51-1.2c1.72,0,3.25.29,4.59.87s2.67,1.46,3.99,2.62V6.14h-5.94V0h12.78v43.08Zm-6.83-22.57c-.81-.9-1.87-1.59-3.15-2.07-1.29-.47-2.51-.71-3.68-.71-2.57,0-4.67.93-6.29,2.78-1.62,1.85-2.43,4.27-2.43,7.24s.81,5.38,2.43,7.21c1.62,1.83,3.71,2.74,6.29,2.74,1.17,0,2.39-.24,3.68-.71,1.29-.47,2.34-1.16,3.15-2.07v-14.42Z"/>
      <path class="cls-2" d="m172.61,27.73c0,2.4-.38,4.58-1.14,6.54-.76,1.96-1.85,3.65-3.27,5.07-1.42,1.42-3.12,2.53-5.1,3.32s-4.19,1.19-6.64,1.19-4.59-.4-6.57-1.19-3.68-1.9-5.1-3.32-2.51-3.11-3.27-5.07-1.14-4.14-1.14-6.54.38-4.49,1.14-6.49,1.85-3.71,3.27-5.15,3.12-2.55,5.1-3.33,4.17-1.17,6.57-1.17,4.65.39,6.64,1.17,3.68,1.89,5.1,3.33,2.51,3.16,3.27,5.15c.76,1.99,1.14,4.15,1.14,6.49Zm-6.83.02c0-1.39-.21-2.71-.64-3.95-.43-1.24-1.05-2.31-1.86-3.19s-1.79-1.58-2.94-2.1-2.44-.78-3.86-.78-2.74.26-3.88.78-2.11,1.22-2.89,2.1c-.79.88-1.4,1.95-1.83,3.19-.43,1.25-.64,2.56-.64,3.95s.21,2.78.64,3.97,1.04,2.24,1.83,3.14c.79.9,1.75,1.6,2.89,2.1,1.14.5,2.43.74,3.88.74s2.71-.25,3.86-.74c1.15-.5,2.13-1.2,2.94-2.1s1.43-1.95,1.86-3.14c.43-1.19.64-2.51.64-3.97Z"/>
      <path class="cls-2" d="m207.97,19.61c-.81-.4-1.65-.7-2.49-.91s-1.82-.31-2.92-.31c-1.52,0-2.94.23-4.27.68s-2.48,1.13-3.45,2.03-1.72,2.03-2.26,3.38-.81,2.95-.81,4.8v7.66h6.9v6.14h-20.7v-6.14h6.97v-18.45h-6.97v-6.17h13.8v7.72c1.12-3.08,2.78-5.26,4.97-6.54,2.19-1.28,4.79-1.91,7.81-1.91.95,0,1.94.1,2.97.3s2.05.55,3.04,1.06l-2.57,6.67Z"/>
      <path class="cls-2" d="m240.68,43.08h-20.66v-6.14h6.8v-18.49h-6.8v-6.14h13.63v24.63h7.03v6.14Zm-6.27-34.76h-8.32V0h8.32v8.32Z"/>
      <path class="cls-1" d="m268.08,27.23l-12.94-12.91,3.93-3.99,16.9,16.9-16.9,16.9-3.93-3.96,12.94-12.94Z"/>
    </g>
  </g>
</svg>